# xmcd CD database file
#
# Track frame offsets:
#	150
#	17786
#	45887
#	70437
#	94318
#	120473
#	146759
#	175078
#	204602
#	233032
#	263290
#
# Disc length: 3919 seconds
#
# Revision: 0
# Processed by: cddbd v1.5.2PL0 Copyright (c) Steve Scherf et al.
# Submitted via: CDex 1.70beta2
#
DISCID=8f0f4d0b
DTITLE=Celano Baggiani Group - Nothing Changes
DYEAR=2008
DGENRE=Jazz
TTITLE0=Daily trip
TTITLE1=The gamekepper
TTITLE2=Chacareta
TTITLE3=Para un final
TTITLE4=Antiglobalismo
TTITLE5=Breath
TTITLE6=Pajarito cantor
TTITLE7=Ale
TTITLE8=Nothing Changes
TTITLE9=El trabajador
TTITLE10=Paciencia
EXTD=YEAR: 2008
EXTT0=
EXTT1=
EXTT2=
EXTT3=
EXTT4=
EXTT5=
EXTT6=
EXTT7=
EXTT8=
EXTT9=
EXTT10=
PLAYORDER=
